<svg width="39" height="40" viewBox="0 0 39 40" fill="none" xmlns="http://www.w3.org/2000/svg">
<g clip-path="url(#clip0_158_1587)">
<path d="M15.7569 16.0266C19.3161 16.0266 22.2014 13.1413 22.2014 9.58214C22.2014 6.02297 19.3161 3.1377 15.7569 3.1377C12.1978 3.1377 9.3125 6.02297 9.3125 9.58214C9.3125 13.1413 12.1978 16.0266 15.7569 16.0266Z" fill="#FF8C88"/>
<path d="M17.6581 34.8444C17.3031 34.4933 17.0715 34.0367 16.9979 33.5429C16.9243 33.0491 17.0128 32.5448 17.2499 32.1055L17.8192 31.0314L16.6484 30.677C16.171 30.5276 15.7554 30.2265 15.4646 29.8194C15.1739 29.4123 15.0238 28.9215 15.0373 28.4214V26.2196C15.0364 25.7217 15.1957 25.2368 15.4916 24.8364C15.7876 24.436 16.2044 24.1415 16.6807 23.9962L17.8514 23.6418L17.2929 22.5677C17.0627 22.1344 16.9751 21.6395 17.0426 21.1535C17.1101 20.6675 17.3292 20.2152 17.6688 19.8611C16.8425 19.7529 16.0103 19.6956 15.177 19.6892C12.7155 19.6313 10.2716 20.1172 8.01958 21.1123C5.76754 22.1075 3.76283 23.5873 2.14844 25.4462V33.7703C2.14844 34.0552 2.2616 34.3284 2.46303 34.5298C2.66445 34.7312 2.93765 34.8444 3.22251 34.8444H17.6581Z" fill="#FF8C88"/>
<path d="M36.1966 25.8651L34.0485 25.2207C33.8999 24.6901 33.6909 24.1784 33.4255 23.6955L34.4996 21.6977C34.5411 21.6236 34.5563 21.5375 34.5426 21.4537C34.529 21.3698 34.4873 21.293 34.4244 21.2359L32.867 19.6677C32.807 19.6093 32.7305 19.5708 32.6479 19.5574C32.5653 19.5439 32.4806 19.5562 32.4052 19.5925L30.4181 20.6666C29.9291 20.4006 29.4146 20.1847 28.8822 20.0221L28.227 17.874C28.1982 17.7948 28.1455 17.7265 28.0763 17.6784C28.0071 17.6303 27.9246 17.6048 27.8404 17.6055H25.6063C25.5225 17.6078 25.4415 17.6359 25.3743 17.6858C25.307 17.7358 25.2568 17.8052 25.2304 17.8847L24.5859 20.0329C24.0438 20.1921 23.5214 20.4119 23.0285 20.6881L21.0844 19.614C21.0088 19.5738 20.9225 19.5584 20.8377 19.57C20.7529 19.5816 20.6739 19.6195 20.6118 19.6784L19.0329 21.2251C18.9708 21.285 18.9298 21.3636 18.9162 21.4488C18.9027 21.5341 18.9173 21.6215 18.9578 21.6977L20.0318 23.6525C19.7438 24.1375 19.5097 24.6525 19.3337 25.1884L17.1855 25.8436C17.1043 25.8671 17.033 25.9166 16.9825 25.9845C16.9321 26.0524 16.9053 26.135 16.9063 26.2196V28.4214C16.9053 28.506 16.9321 28.5886 16.9825 28.6565C17.033 28.7244 17.1043 28.7738 17.1855 28.7973L19.3337 29.4525C19.4948 29.9785 19.7108 30.4862 19.9781 30.967L18.9041 33.0077C18.8635 33.084 18.849 33.1713 18.8625 33.2566C18.8761 33.3419 18.9171 33.4204 18.9792 33.4803L20.5796 35.0377C20.6417 35.0966 20.7207 35.1346 20.8055 35.1461C20.8903 35.1577 20.9766 35.1423 21.0522 35.1021L23.0607 34.0281C23.5384 34.2858 24.0426 34.4911 24.5644 34.6403L25.2089 36.8421C25.2359 36.9234 25.2878 36.994 25.3572 37.0441C25.4266 37.0942 25.5099 37.1213 25.5955 37.1214H27.7974C27.8811 37.1191 27.9621 37.091 28.0294 37.0411C28.0966 36.9911 28.1469 36.9216 28.1733 36.8421L28.8178 34.6403C29.3331 34.4921 29.8303 34.2867 30.3 34.0281L32.33 35.1021C32.4056 35.1423 32.4919 35.1577 32.5767 35.1461C32.6615 35.1346 32.7405 35.0966 32.8026 35.0377L34.3707 33.4803C34.4297 33.4182 34.4676 33.3392 34.4792 33.2544C34.4907 33.1696 34.4753 33.0833 34.4352 33.0077L33.3611 30.9884C33.6174 30.5176 33.8227 30.0207 33.9733 29.5062L36.1215 28.851C36.2022 28.8251 36.2731 28.7752 36.3249 28.7081C36.3766 28.641 36.4068 28.5598 36.4115 28.4751V26.2518C36.4141 26.1739 36.3955 26.0968 36.3576 26.0287C36.3198 25.9606 36.2642 25.904 36.1966 25.8651ZM26.7126 30.9347C26.0026 30.9369 25.308 30.7283 24.7166 30.3354C24.1252 29.9425 23.6638 29.383 23.3906 28.7276C23.1174 28.0723 23.0448 27.3507 23.1821 26.6541C23.3193 25.9575 23.6601 25.3173 24.1614 24.8145C24.6626 24.3117 25.3018 23.969 25.998 23.8297C26.6942 23.6904 27.416 23.7608 28.0722 24.032C28.7283 24.3032 29.2892 24.763 29.6839 25.3532C30.0786 25.9433 30.2892 26.6374 30.2892 27.3473C30.2892 28.2969 29.9128 29.2078 29.2423 29.8802C28.5719 30.5527 27.6622 30.9319 26.7126 30.9347Z" fill="#FF8C88"/>
</g>
<defs>
<clipPath id="clip0_158_1587">
<rect width="38.6667" height="38.6667" fill="white" transform="translate(0 0.666992)"/>
</clipPath>
</defs>
</svg>
