<svg width="16" height="16" viewBox="0 0 16 16" fill="none" xmlns="http://www.w3.org/2000/svg">
<g clip-path="url(#clip0_158_1297)">
<path d="M13.2997 3.69068L10.9757 1.36668C10.5434 0.932069 10.0292 0.587499 9.46288 0.352912C8.89656 0.118325 8.28933 -0.00162037 7.67634 1.65308e-05H4.66634C3.78261 0.0010751 2.93538 0.352605 2.31049 0.977497C1.6856 1.60239 1.33407 2.44962 1.33301 3.33335V12.6667C1.33407 13.5504 1.6856 14.3976 2.31049 15.0225C2.93538 15.6474 3.78261 15.999 4.66634 16H11.333C12.2167 15.999 13.064 15.6474 13.6889 15.0225C14.3138 14.3976 14.6653 13.5504 14.6663 12.6667V6.99002C14.668 6.37703 14.548 5.7698 14.3134 5.20347C14.0789 4.63715 13.7343 4.12297 13.2997 3.69068ZM12.357 4.63335C12.5604 4.84296 12.7354 5.07829 12.8777 5.33335H9.99967C9.82286 5.33335 9.65329 5.26311 9.52827 5.13809C9.40325 5.01306 9.33301 4.84349 9.33301 4.66668V1.78868C9.58807 1.93094 9.8234 2.10598 10.033 2.30935L12.357 4.63335ZM13.333 12.6667C13.333 13.1971 13.1223 13.7058 12.7472 14.0809C12.3721 14.456 11.8634 14.6667 11.333 14.6667H4.66634C4.13591 14.6667 3.6272 14.456 3.25213 14.0809C2.87705 13.7058 2.66634 13.1971 2.66634 12.6667V3.33335C2.66634 2.80292 2.87705 2.29421 3.25213 1.91914C3.6272 1.54406 4.13591 1.33335 4.66634 1.33335H7.67634C7.78634 1.33335 7.89167 1.35468 7.99967 1.36468V4.66668C7.99967 5.19712 8.21039 5.70582 8.58546 6.0809C8.96053 6.45597 9.46924 6.66668 9.99967 6.66668H13.3017C13.3117 6.77468 13.333 6.88002 13.333 6.99002V12.6667ZM11.149 8.87402C11.2707 9.00207 11.3367 9.17322 11.3323 9.34985C11.3279 9.52647 11.2536 9.69414 11.1257 9.81602L8.73301 12.092C8.3569 12.4622 7.84973 12.6687 7.32201 12.6666C6.79429 12.6645 6.28879 12.4539 5.91567 12.0807L4.88901 11.1647C4.75693 11.0469 4.67704 10.8815 4.66691 10.7049C4.6619 10.6174 4.67416 10.5298 4.703 10.4471C4.73185 10.3643 4.7767 10.2881 4.83501 10.2227C4.89331 10.1573 4.96393 10.104 5.04283 10.0659C5.12172 10.0278 5.20735 10.0056 5.29482 10.0006C5.47148 9.99046 5.64493 10.0509 5.77701 10.1687L6.83367 11.1114C6.89417 11.1793 6.96792 11.2341 7.05039 11.2725C7.13287 11.3108 7.22232 11.3319 7.31325 11.3344C7.40417 11.3369 7.49465 11.3208 7.5791 11.287C7.66356 11.2532 7.74021 11.2025 7.80434 11.138L10.2043 8.85068C10.2678 8.79 10.3426 8.74246 10.4245 8.71078C10.5064 8.6791 10.5937 8.6639 10.6815 8.66607C10.7693 8.66824 10.8558 8.68773 10.936 8.72341C11.0162 8.7591 11.0886 8.81028 11.149 8.87402Z" fill="#4A4A4A"/>
</g>
<defs>
<clipPath id="clip0_158_1297">
<rect width="16" height="16" fill="white"/>
</clipPath>
</defs>
</svg>
