<svg width="20" height="21" viewBox="0 0 20 21" fill="none" xmlns="http://www.w3.org/2000/svg">
<g clip-path="url(#clip0_158_831)">
<path d="M7.74004 11.4451C5.8092 11.8168 4.85254 13.9668 4.43754 15.3068C4.3984 15.4317 4.38924 15.5641 4.41079 15.6932C4.43234 15.8223 4.484 15.9445 4.56158 16.0499C4.63917 16.1553 4.74049 16.241 4.85735 16.2999C4.97421 16.3589 5.10331 16.3895 5.2342 16.3893H8.33337C8.68096 16.3894 9.02475 16.3169 9.34278 16.1766C9.6608 16.0364 9.94608 15.8313 10.1804 15.5746C10.4147 15.3178 10.5929 15.015 10.7036 14.6855C10.8143 14.3561 10.8551 14.0071 10.8234 13.661C10.7791 13.3073 10.6622 12.9666 10.4802 12.6601C10.2981 12.3537 10.0547 12.0882 9.76526 11.8802C9.47582 11.6722 9.14654 11.5262 8.79805 11.4513C8.44956 11.3764 8.08937 11.3743 7.74004 11.4451V11.4451Z" fill="#C7C7C7"/>
<path d="M19.1667 8.03816C18.9457 8.03816 18.7337 8.12596 18.5774 8.28224C18.4211 8.43852 18.3333 8.65048 18.3333 8.8715V13.0557H15C14.337 13.0557 13.7011 13.3191 13.2322 13.7879C12.7634 14.2567 12.5 14.8926 12.5 15.5557V18.889H4.16667C3.50363 18.889 2.86774 18.6256 2.3989 18.1568C1.93006 17.6879 1.66667 17.052 1.66667 16.389V4.72233C1.66667 4.05929 1.93006 3.4234 2.3989 2.95456C2.86774 2.48572 3.50363 2.22233 4.16667 2.22233H13.3683C13.5893 2.22233 13.8013 2.13453 13.9576 1.97825C14.1139 1.82197 14.2017 1.61001 14.2017 1.389C14.2017 1.16798 14.1139 0.956022 13.9576 0.799742C13.8013 0.643461 13.5893 0.555664 13.3683 0.555664H4.16667C3.062 0.556987 2.00296 0.996399 1.22185 1.77751C0.440735 2.55863 0.00132321 3.61767 0 4.72233L0 16.389C0.00132321 17.4937 0.440735 18.5527 1.22185 19.3338C2.00296 20.1149 3.062 20.5543 4.16667 20.5557H13.6192C14.1665 20.5572 14.7086 20.4502 15.2143 20.2408C15.72 20.0313 16.179 19.7237 16.565 19.3357L18.78 17.1207C19.168 16.7347 19.4757 16.2756 19.6851 15.77C19.8945 15.2643 20.0015 14.7221 20 14.1748V8.8715C20 8.65048 19.9122 8.43852 19.7559 8.28224C19.5996 8.12596 19.3877 8.03816 19.1667 8.03816ZM15.3867 18.1573C15.0506 18.4896 14.6278 18.7207 14.1667 18.824V15.5557C14.1667 15.3346 14.2545 15.1227 14.4107 14.9664C14.567 14.8101 14.779 14.7223 15 14.7223H18.2708C18.1675 15.1835 17.9365 15.6063 17.6042 15.9423L15.3867 18.1573Z" fill="#C7C7C7"/>
<path d="M12.1384 12.3642C11.9736 12.3642 11.8126 12.3153 11.6755 12.2237C11.5385 12.1322 11.4318 12.002 11.3687 11.8498C11.3056 11.6975 11.2891 11.53 11.3213 11.3684C11.3534 11.2068 11.4328 11.0583 11.5493 10.9417L18.0934 4.39758C18.1666 4.32458 18.2246 4.23788 18.2642 4.14243C18.3038 4.04698 18.3242 3.94466 18.3242 3.84133C18.3242 3.73799 18.3038 3.63567 18.2642 3.54022C18.2246 3.44477 18.1666 3.35807 18.0934 3.28508C18.019 3.20772 17.9289 3.14724 17.8291 3.1077C17.7294 3.06817 17.6223 3.05051 17.5151 3.05591C17.408 3.05824 17.3025 3.08269 17.2053 3.12771C17.108 3.17274 17.0212 3.23738 16.9501 3.31758L10.6168 10.3234C10.4686 10.4874 10.2613 10.5858 10.0406 10.597C9.81982 10.6082 9.60367 10.5312 9.43968 10.383C9.27569 10.2348 9.17728 10.0275 9.16611 9.80679C9.15493 9.58605 9.23191 9.3699 9.3801 9.20591L15.7134 2.20591C15.9355 1.95796 16.2057 1.75773 16.5075 1.61734C16.8093 1.47696 17.1365 1.39936 17.4693 1.38924C17.8025 1.3821 18.1338 1.44201 18.4434 1.56541C18.7531 1.68881 19.0348 1.87318 19.2718 2.10758C19.7311 2.56797 19.9891 3.19179 19.9891 3.84216C19.9891 4.49253 19.7311 5.11635 19.2718 5.57674L12.7276 12.1209C12.6504 12.1984 12.5585 12.2598 12.4574 12.3016C12.3563 12.3434 12.2478 12.3646 12.1384 12.3642Z" fill="#C7C7C7"/>
</g>
<defs>
<clipPath id="clip0_158_831">
<rect width="20" height="20" fill="white" transform="translate(0 0.555664)"/>
</clipPath>
</defs>
</svg>
