<svg width="16" height="16" viewBox="0 0 16 16" fill="none" xmlns="http://www.w3.org/2000/svg">
<g clip-path="url(#clip0_158_1606)">
<path d="M2.66621 4.00036C2.40338 4.00105 2.14302 3.94962 1.9002 3.84903C1.65737 3.74844 1.4369 3.60071 1.25155 3.41436L0.222213 2.49836C0.0901348 2.38061 0.0102449 2.21521 0.000117984 2.03855C-0.010009 1.86189 0.0504565 1.68844 0.168213 1.55636C0.285969 1.42428 0.45137 1.34439 0.628029 1.33427C0.804688 1.32414 0.978135 1.38461 1.11021 1.50236L2.16688 2.44503C2.22737 2.51296 2.30112 2.56779 2.3836 2.60615C2.46607 2.64452 2.55553 2.6656 2.64645 2.66809C2.73738 2.67059 2.82785 2.65446 2.91231 2.62068C2.99677 2.5869 3.07342 2.5362 3.13755 2.4717L5.54021 0.184362C5.66941 0.0693422 5.83825 0.00904139 6.01108 0.0161961C6.18391 0.0233507 6.34719 0.0974007 6.46644 0.222705C6.58569 0.34801 6.65156 0.514758 6.65015 0.68773C6.64874 0.860701 6.58015 1.02635 6.45888 1.1497L4.06621 3.4257C3.88206 3.60877 3.66363 3.75376 3.42341 3.85237C3.18319 3.95097 2.92588 4.00126 2.66621 4.00036ZM15.9995 2.66703C15.9995 2.49022 15.9293 2.32065 15.8043 2.19562C15.6793 2.0706 15.5097 2.00036 15.3329 2.00036H8.66621C8.4894 2.00036 8.31983 2.0706 8.19481 2.19562C8.06978 2.32065 7.99955 2.49022 7.99955 2.66703C7.99955 2.84384 8.06978 3.01341 8.19481 3.13843C8.31983 3.26346 8.4894 3.3337 8.66621 3.3337H15.3329C15.5097 3.3337 15.6793 3.26346 15.8043 3.13843C15.9293 3.01341 15.9995 2.84384 15.9995 2.66703ZM4.06621 8.75903L6.45888 6.48303C6.52566 6.42358 6.5798 6.3513 6.61808 6.27049C6.65635 6.18969 6.67798 6.10201 6.68168 6.01267C6.68538 5.92334 6.67107 5.83417 6.6396 5.75048C6.60814 5.66679 6.56016 5.59028 6.49852 5.52551C6.43688 5.46074 6.36284 5.40903 6.28081 5.37346C6.19878 5.33789 6.11043 5.31918 6.02102 5.31845C5.93161 5.31773 5.84297 5.33499 5.76037 5.36922C5.67777 5.40345 5.6029 5.45394 5.54021 5.5177L3.14021 7.80503C3.0133 7.92638 2.84447 7.99411 2.66888 7.99411C2.49329 7.99411 2.32446 7.92638 2.19755 7.80503L1.13755 6.74836C1.01181 6.62692 0.84341 6.55973 0.668612 6.56125C0.493814 6.56277 0.326606 6.63288 0.203 6.75648C0.0793948 6.88009 0.00928216 7.0473 0.00776321 7.2221C0.00624427 7.39689 0.0734405 7.56529 0.194879 7.69103L1.25155 8.7477C1.62466 9.1209 2.13016 9.33151 2.65788 9.33363C3.1856 9.33575 3.69277 9.12922 4.06888 8.75903H4.06621ZM15.9995 8.00036C15.9995 7.82355 15.9293 7.65398 15.8043 7.52896C15.6793 7.40393 15.5097 7.3337 15.3329 7.3337H8.66621C8.4894 7.3337 8.31983 7.40393 8.19481 7.52896C8.06978 7.65398 7.99955 7.82355 7.99955 8.00036C7.99955 8.17717 8.06978 8.34674 8.19481 8.47177C8.31983 8.59679 8.4894 8.66703 8.66621 8.66703H15.3329C15.5097 8.66703 15.6793 8.59679 15.8043 8.47177C15.9293 8.34674 15.9995 8.17717 15.9995 8.00036ZM4.06621 14.0924L6.45621 11.8164C6.52299 11.7569 6.57713 11.6846 6.61541 11.6038C6.65369 11.523 6.67532 11.4353 6.67901 11.346C6.68271 11.2567 6.6684 11.1675 6.63694 11.0838C6.60547 11.0001 6.55749 10.9236 6.49585 10.8588C6.43421 10.7941 6.36018 10.7424 6.27814 10.7068C6.19611 10.6712 6.10776 10.6525 6.01836 10.6518C5.92895 10.6511 5.8403 10.6683 5.7577 10.7026C5.6751 10.7368 5.60023 10.7873 5.53755 10.851L3.13755 13.1384C3.07342 13.2029 2.99677 13.2536 2.91231 13.2873C2.82785 13.3211 2.73738 13.3373 2.64645 13.3348C2.55553 13.3323 2.46607 13.3112 2.3836 13.2728C2.30112 13.2345 2.22737 13.1796 2.16688 13.1117L1.11021 12.169C0.978135 12.0513 0.804688 11.9908 0.628029 12.0009C0.45137 12.0111 0.285969 12.091 0.168213 12.223C0.0504565 12.3551 -0.010009 12.5286 0.000117984 12.7052C0.0102449 12.8819 0.0901348 13.0473 0.222213 13.165L1.25155 14.081C1.62466 14.4542 2.13016 14.6648 2.65788 14.667C3.1856 14.6691 3.69277 14.4626 4.06888 14.0924H4.06621ZM15.9995 13.3337C15.9995 13.1569 15.9293 12.9873 15.8043 12.8623C15.6793 12.7373 15.5097 12.667 15.3329 12.667H8.66621C8.4894 12.667 8.31983 12.7373 8.19481 12.8623C8.06978 12.9873 7.99955 13.1569 7.99955 13.3337C7.99955 13.5105 8.06978 13.6801 8.19481 13.8051C8.31983 13.9301 8.4894 14.0004 8.66621 14.0004H15.3329C15.5097 14.0004 15.6793 13.9301 15.8043 13.8051C15.9293 13.6801 15.9995 13.5105 15.9995 13.3337Z" fill="#4A4A4A"/>
</g>
<defs>
<clipPath id="clip0_158_1606">
<rect width="16" height="16" fill="white"/>
</clipPath>
</defs>
</svg>
