<svg width="16" height="16" viewBox="0 0 16 16" fill="none" xmlns="http://www.w3.org/2000/svg">
<g clip-path="url(#clip0_158_1598)">
<path d="M15.413 0.581194C15.2046 0.37332 14.9527 0.214254 14.6755 0.115458C14.3982 0.0166625 14.1025 -0.0194029 13.8097 0.00986068C11.9477 0.189861 5.68566 0.965194 3.267 3.38119C2.11084 4.5405 1.42526 6.08708 1.34265 7.72227C1.26003 9.35746 1.78624 10.9653 2.81966 12.2352L0.193 14.8619C0.0715618 14.9876 0.00436563 15.156 0.00588458 15.3308C0.00740352 15.5056 0.0775161 15.6728 0.201121 15.7964C0.324727 15.92 0.491935 15.9901 0.666732 15.9916C0.84153 15.9932 1.00993 15.926 1.13567 15.8045L3.76233 13.1779C5.032 14.2127 6.64024 14.74 8.27613 14.6578C9.91201 14.5757 11.4594 13.89 12.619 12.7332C15.0697 10.2819 15.819 4.03919 15.9916 2.18453C16.0199 1.89111 15.9826 1.59508 15.8825 1.31781C15.7825 1.04055 15.6221 0.788954 15.413 0.581194ZM11.6797 11.7879C10.7707 12.6935 9.56313 13.2374 8.28251 13.318C7.00189 13.3986 5.7357 13.0104 4.72033 12.2259L11.1417 5.80453C11.2631 5.67879 11.3303 5.51039 11.3288 5.33559C11.3273 5.1608 11.2571 4.99359 11.1335 4.86998C11.0099 4.74638 10.8427 4.67626 10.6679 4.67474C10.4931 4.67323 10.3247 4.74042 10.199 4.86186L3.77433 11.2832C2.98965 10.2679 2.60135 9.00166 2.68195 7.72099C2.76255 6.44033 3.30654 5.23279 4.21233 4.32386C5.88499 2.65186 10.497 1.66653 13.9383 1.33653C14.0358 1.32704 14.1341 1.33915 14.2264 1.37198C14.3187 1.40481 14.4026 1.45757 14.4721 1.52649C14.5417 1.59542 14.5952 1.67883 14.6289 1.77078C14.6626 1.86273 14.6756 1.96098 14.667 2.05853C14.3337 5.64986 13.373 10.0912 11.6763 11.7879H11.6797Z" fill="white"/>
</g>
<defs>
<clipPath id="clip0_158_1598">
<rect width="16" height="16" fill="white"/>
</clipPath>
</defs>
</svg>
