<svg width="20" height="21" viewBox="0 0 20 21" fill="none" xmlns="http://www.w3.org/2000/svg">
<g clip-path="url(#clip0_158_832)">
<path d="M17.5003 3.889H14.917C14.7236 2.94851 14.2118 2.10345 13.468 1.49626C12.7242 0.889072 11.7938 0.556876 10.8337 0.555664L9.16699 0.555664C8.20682 0.556876 7.27642 0.889072 6.53262 1.49626C5.78881 2.10345 5.27707 2.94851 5.08366 3.889H2.50033C2.27931 3.889 2.06735 3.97679 1.91107 4.13308C1.75479 4.28936 1.66699 4.50132 1.66699 4.72233C1.66699 4.94334 1.75479 5.15531 1.91107 5.31159C2.06735 5.46787 2.27931 5.55566 2.50033 5.55566H3.33366V16.389C3.33498 17.4937 3.77439 18.5527 4.55551 19.3338C5.33662 20.1149 6.39566 20.5543 7.50033 20.5557H12.5003C13.605 20.5543 14.664 20.1149 15.4451 19.3338C16.2263 18.5527 16.6657 17.4937 16.667 16.389V5.55566H17.5003C17.7213 5.55566 17.9333 5.46787 18.0896 5.31159C18.2459 5.15531 18.3337 4.94334 18.3337 4.72233C18.3337 4.50132 18.2459 4.28936 18.0896 4.13308C17.9333 3.97679 17.7213 3.889 17.5003 3.889ZM9.16699 2.22233H10.8337C11.3506 2.22296 11.8546 2.38348 12.2767 2.68187C12.6987 2.98026 13.0182 3.40191 13.1912 3.889H6.80949C6.98248 3.40191 7.30191 2.98026 7.72398 2.68187C8.14605 2.38348 8.6501 2.22296 9.16699 2.22233ZM15.0003 16.389C15.0003 17.052 14.7369 17.6879 14.2681 18.1568C13.7993 18.6256 13.1634 18.889 12.5003 18.889H7.50033C6.83728 18.889 6.2014 18.6256 5.73256 18.1568C5.26372 17.6879 5.00033 17.052 5.00033 16.389V5.55566H15.0003V16.389Z" fill="#C7C7C7"/>
<path d="M8.33333 15.5553C8.55434 15.5553 8.76631 15.4675 8.92259 15.3112C9.07887 15.155 9.16666 14.943 9.16666 14.722V9.722C9.16666 9.50099 9.07887 9.28903 8.92259 9.13275C8.76631 8.97647 8.55434 8.88867 8.33333 8.88867C8.11232 8.88867 7.90036 8.97647 7.74408 9.13275C7.5878 9.28903 7.5 9.50099 7.5 9.722V14.722C7.5 14.943 7.5878 15.155 7.74408 15.3112C7.90036 15.4675 8.11232 15.5553 8.33333 15.5553Z" fill="#C7C7C7"/>
<path d="M11.6663 15.5553C11.8874 15.5553 12.0993 15.4675 12.2556 15.3112C12.4119 15.155 12.4997 14.943 12.4997 14.722V9.722C12.4997 9.50099 12.4119 9.28903 12.2556 9.13275C12.0993 8.97647 11.8874 8.88867 11.6663 8.88867C11.4453 8.88867 11.2334 8.97647 11.0771 9.13275C10.9208 9.28903 10.833 9.50099 10.833 9.722V14.722C10.833 14.943 10.9208 15.155 11.0771 15.3112C11.2334 15.4675 11.4453 15.5553 11.6663 15.5553Z" fill="#C7C7C7"/>
</g>
<defs>
<clipPath id="clip0_158_832">
<rect width="20" height="20" fill="white" transform="translate(0 0.555664)"/>
</clipPath>
</defs>
</svg>
