<svg width="16" height="16" viewBox="0 0 16 16" fill="none" xmlns="http://www.w3.org/2000/svg">
<g clip-path="url(#clip0_158_1614)">
<path d="M14.3333 16.0003H1.66667C1.4478 16.0003 1.23107 15.9572 1.02886 15.8735C0.826652 15.7897 0.64292 15.6669 0.488155 15.5122C0.333391 15.3574 0.210625 15.1737 0.126867 14.9715C0.0431096 14.7693 0 14.5525 0 14.3337C0 13.8916 0.175595 13.4677 0.488155 13.1551C0.800716 12.8426 1.22464 12.667 1.66667 12.667H14.3333C14.5522 12.667 14.7689 12.7101 14.9711 12.7939C15.1733 12.8776 15.3571 13.0004 15.5118 13.1551C15.6666 13.3099 15.7894 13.4936 15.8731 13.6959C15.9569 13.8981 16 14.1148 16 14.3337C16 14.5525 15.9569 14.7693 15.8731 14.9715C15.7894 15.1737 15.6666 15.3574 15.5118 15.5122C15.3571 15.6669 15.1733 15.7897 14.9711 15.8735C14.7689 15.9572 14.5522 16.0003 14.3333 16.0003ZM16 9.33366C16 8.98004 15.8595 8.6409 15.6095 8.39085C15.3594 8.1408 15.0203 8.00033 14.6667 8.00033H1.33333C0.979711 8.00033 0.640573 8.1408 0.390524 8.39085C0.140476 8.6409 0 8.98004 0 9.33366C0 9.68728 0.140476 10.0264 0.390524 10.2765C0.640573 10.5265 0.979711 10.667 1.33333 10.667H14.6667C15.0203 10.667 15.3594 10.5265 15.6095 10.2765C15.8595 10.0264 16 9.68728 16 9.33366ZM16 5.00033C16 4.73511 15.8946 4.48075 15.7071 4.29322C15.5196 4.10568 15.2652 4.00033 15 4.00033H1C0.734784 4.00033 0.48043 4.10568 0.292893 4.29322C0.105357 4.48075 0 4.73511 0 5.00033C0 5.26554 0.105357 5.5199 0.292893 5.70743C0.48043 5.89497 0.734784 6.00033 1 6.00033H15C15.2652 6.00033 15.5196 5.89497 15.7071 5.70743C15.8946 5.5199 16 5.26554 16 5.00033ZM16 1.33366C16 1.15685 15.9298 0.987279 15.8047 0.862254C15.6797 0.73723 15.5101 0.666992 15.3333 0.666992H0.666667C0.489856 0.666992 0.320286 0.73723 0.195262 0.862254C0.0702379 0.987279 0 1.15685 0 1.33366C0 1.51047 0.0702379 1.68004 0.195262 1.80506C0.320286 1.93009 0.489856 2.00033 0.666667 2.00033H15.3333C15.5101 2.00033 15.6797 1.93009 15.8047 1.80506C15.9298 1.68004 16 1.51047 16 1.33366Z" fill="#4A4A4A"/>
</g>
<defs>
<clipPath id="clip0_158_1614">
<rect width="16" height="16" fill="white"/>
</clipPath>
</defs>
</svg>
