<svg width="16" height="16" viewBox="0 0 16 16" fill="none" xmlns="http://www.w3.org/2000/svg">
<g clip-path="url(#clip0_158_1263)">
<path d="M15.8044 14.8618L15.0864 14.1438L13.9331 12.9925L15.7924 11.1332C15.8716 11.0539 15.9295 10.956 15.9607 10.8484C15.992 10.7409 15.9957 10.6272 15.9715 10.5178C15.9472 10.4085 15.8958 10.307 15.822 10.2227C15.7482 10.1385 15.6543 10.0742 15.5491 10.0358L9.56975 7.8665C9.33157 7.78042 9.07381 7.76394 8.82662 7.81901C8.57942 7.87408 8.35302 7.99841 8.17391 8.17745C7.9948 8.35649 7.87038 8.58284 7.81522 8.83001C7.76005 9.07719 7.77643 9.33496 7.86242 9.57316L10.0377 15.5525C10.0759 15.6578 10.1401 15.7518 10.2242 15.8258C10.3083 15.8998 10.4097 15.9514 10.5191 15.9758C10.5666 15.9862 10.6151 15.9913 10.6637 15.9912C10.8405 15.9911 11.0101 15.9209 11.1351 15.7958L12.9924 13.9332L14.1437 15.0845L14.8617 15.8025C14.9875 15.9239 15.1559 15.9911 15.3307 15.9896C15.5055 15.9881 15.6727 15.918 15.7963 15.7944C15.9199 15.6708 15.99 15.5036 15.9915 15.3288C15.9931 15.154 15.9259 14.9856 15.8044 14.8598V14.8618ZM10.9331 14.1098L9.11708 9.1165L14.1104 10.9325L10.9331 14.1098Z" fill="#4A4A4A"/>
<path d="M6.66667 13.3333C5.34813 13.3333 4.0592 12.9423 2.96287 12.2098C1.86654 11.4773 1.01206 10.4361 0.507473 9.21789C0.00288856 7.99972 -0.129134 6.65927 0.128101 5.36607C0.385336 4.07286 1.02027 2.88497 1.95262 1.95262C2.88497 1.02027 4.07286 0.385336 5.36607 0.128101C6.65927 -0.129134 7.99972 0.00288856 9.21789 0.507473C10.4361 1.01206 11.4773 1.86654 12.2098 2.96287C12.9423 4.0592 13.3333 5.34813 13.3333 6.66667C13.3333 6.84348 13.2631 7.01305 13.1381 7.13807C13.0131 7.2631 12.8435 7.33334 12.6667 7.33334C12.4899 7.33334 12.3203 7.2631 12.1953 7.13807C12.0702 7.01305 12 6.84348 12 6.66667C12 5.61184 11.6872 4.58069 11.1012 3.70363C10.5151 2.82657 9.68219 2.14298 8.70765 1.73931C7.73311 1.33564 6.66075 1.23003 5.62619 1.43581C4.59162 1.6416 3.64131 2.14955 2.89543 2.89543C2.14955 3.64131 1.6416 4.59162 1.43581 5.62619C1.23003 6.66075 1.33564 7.73311 1.73931 8.70765C2.14298 9.68219 2.82657 10.5151 3.70363 11.1012C4.58069 11.6872 5.61184 12 6.66667 12C6.84348 12 7.01305 12.0702 7.13807 12.1953C7.2631 12.3203 7.33334 12.4899 7.33334 12.6667C7.33334 12.8435 7.2631 13.0131 7.13807 13.1381C7.01305 13.2631 6.84348 13.3333 6.66667 13.3333Z" fill="#4A4A4A"/>
<path d="M5.38903 10.4137C5.30142 10.4137 5.21465 10.3965 5.1337 10.363C4.52627 10.1107 3.99042 9.71251 3.57362 9.2037C3.15682 8.69488 2.87192 8.09113 2.74416 7.44592C2.61639 6.80071 2.64971 6.13395 2.84115 5.50469C3.0326 4.87543 3.37626 4.30309 3.84171 3.83835C4.30716 3.37362 4.88002 3.03083 5.50958 2.84035C6.13913 2.64987 6.80594 2.61758 7.45096 2.74633C8.09597 2.87508 8.69928 3.1609 9.20746 3.57848C9.71564 3.99606 10.113 4.53251 10.3644 5.14033C10.3996 5.22153 10.4183 5.30894 10.4194 5.39745C10.4205 5.48597 10.4039 5.57381 10.3707 5.65586C10.3375 5.73791 10.2883 5.81252 10.2259 5.87534C10.1635 5.93816 10.0893 5.98794 10.0075 6.02176C9.92568 6.05558 9.83796 6.07276 9.74944 6.07232C9.66092 6.07188 9.57337 6.05381 9.49191 6.01917C9.41045 5.98454 9.3367 5.93402 9.27497 5.87058C9.21324 5.80714 9.16476 5.73204 9.13236 5.64966C8.96441 5.24482 8.69925 4.88761 8.36035 4.60966C8.02146 4.33171 7.61927 4.14158 7.18939 4.05609C6.75951 3.97059 6.31518 3.99238 5.89572 4.11952C5.47627 4.24667 5.09462 4.47524 4.78454 4.78501C4.47447 5.09479 4.24553 5.47622 4.11799 5.89556C3.99045 6.31489 3.96823 6.7592 4.05331 7.18916C4.13839 7.61912 4.32814 8.02149 4.60577 8.36065C4.8834 8.69981 5.24035 8.96531 5.64503 9.13365C5.78765 9.19268 5.90537 9.29935 5.9781 9.43549C6.05084 9.57162 6.07409 9.72878 6.04388 9.88014C6.01367 10.0315 5.93187 10.1677 5.81245 10.2655C5.69303 10.3633 5.54338 10.4166 5.38903 10.4163V10.4137Z" fill="#4A4A4A"/>
</g>
<defs>
<clipPath id="clip0_158_1263">
<rect width="16" height="16" fill="white"/>
</clipPath>
</defs>
</svg>
