<svg width="320" height="320" viewBox="0 0 486 486" fill="none" xmlns="http://www.w3.org/2000/svg">
<path d="M44.4961 1.09863C50.3274 0.513747 57.8792 0.559735 64.7285 1.0625C71.5992 1.56684 77.6797 2.52545 80.6113 3.73242C86.7233 6.24909 90.1444 7.8829 95.7227 13.2949C101.338 18.7434 109.114 27.9979 123.896 45.7734C154.051 82.0373 173.29 105.134 182.6 116.243C186.522 120.923 202.067 139.548 217.154 157.636C232.244 175.727 248.011 194.632 252.199 199.645C256.386 204.655 292.228 247.574 331.828 295.034C351.576 318.701 369.686 340.223 382.975 355.854C389.619 363.67 395.058 370.015 398.896 374.419C400.814 376.621 402.333 378.339 403.403 379.516C403.938 380.103 404.363 380.559 404.672 380.873C404.825 381.029 404.955 381.156 405.058 381.248C405.108 381.293 405.16 381.337 405.208 381.372C405.234 381.391 405.332 381.465 405.459 381.494L405.514 381.507H405.57C406.069 381.507 406.679 381.284 407.238 380.986C407.813 380.68 408.406 380.256 408.879 379.779L408.88 379.778C409.175 379.479 409.35 378.962 409.489 378.206C409.634 377.418 409.757 376.254 409.864 374.539C410.078 371.105 410.229 365.394 410.336 355.916C410.55 336.956 410.587 302.879 410.587 241.697C410.587 195.825 410.505 161.668 410.336 138.795C410.251 127.359 410.145 118.741 410.016 112.89C409.951 109.965 409.881 107.727 409.805 106.173C409.767 105.397 409.727 104.785 409.686 104.342C409.665 104.121 409.642 103.935 409.618 103.789C409.598 103.663 409.569 103.507 409.513 103.389L409.508 103.379L409.502 103.369L409.368 103.139C409.034 102.61 408.555 102.147 408.034 101.804C407.443 101.414 406.749 101.146 406.093 101.145H406.092C405.938 101.145 405.789 101.196 405.68 101.241C405.558 101.292 405.421 101.362 405.272 101.446C404.975 101.616 404.595 101.866 404.134 102.191C403.209 102.844 401.922 103.829 400.251 105.164C396.906 107.836 391.995 111.932 385.309 117.632C371.934 129.032 351.44 146.861 322.122 172.574C311.47 181.916 306.135 186.589 302.895 188.933C301.279 190.101 300.221 190.662 299.314 190.94C298.412 191.218 297.624 191.227 296.487 191.227C294.926 191.226 293.846 191.057 292.822 190.571C291.786 190.079 290.765 189.242 289.357 187.822C287.856 186.306 287.057 185.344 286.651 184.393C286.255 183.463 286.212 182.493 286.372 180.896C286.401 180.61 286.568 180.086 286.973 179.221C287.369 178.372 287.97 177.242 288.823 175.763C290.529 172.805 293.22 168.481 297.232 162.272C305.257 149.856 318.55 129.928 339.78 98.3701C354.543 76.4263 368.335 56.1823 378.756 41.1064C383.967 33.5684 388.334 27.3238 391.559 22.8057C393.171 20.5463 394.496 18.72 395.498 17.3809C396.511 16.0271 397.168 15.204 397.457 14.918C402.715 9.71375 412.25 4.28 419.613 2.2998C423.074 1.3699 428.298 0.928506 433.51 0.973633C438.723 1.01879 443.855 1.55058 447.137 2.5332C465.053 7.89842 479.049 22.8375 483.178 40.9033L483.367 41.7656C483.425 42.0447 483.488 42.6904 483.551 43.7207C483.613 44.7377 483.672 46.0963 483.73 47.7754C483.847 51.1332 483.956 55.7619 484.056 61.4814C484.256 72.9203 484.423 88.7145 484.558 107.412C484.826 144.807 484.963 193.812 484.967 242.814C484.971 291.817 484.842 340.817 484.579 378.2C484.448 396.892 484.282 412.678 484.084 424.107C483.985 429.822 483.878 434.446 483.762 437.799C483.704 439.475 483.644 440.832 483.582 441.846C483.519 442.874 483.456 443.516 483.398 443.791C479.222 463.674 462.487 480.066 442.673 483.69C435.601 484.984 427.495 485.15 419.885 484.345C412.269 483.539 405.19 481.765 400.159 479.204C397.521 477.861 395.704 477.001 393.551 475.401C391.395 473.8 388.89 471.447 384.927 467.12C376.997 458.461 363.312 441.984 335.028 408.024C309.776 377.703 252.413 308.952 232.42 285.044C226.834 278.364 210.312 258.549 195.701 241.014C181.092 223.478 156.764 194.325 141.642 176.23C126.522 158.141 106.959 134.679 98.1641 124.099C93.764 118.805 89.5418 113.953 86.2852 110.398C84.6576 108.622 83.2668 107.166 82.2139 106.14C81.6883 105.627 81.2398 105.216 80.8848 104.924C80.7079 104.778 80.5461 104.656 80.4043 104.564C80.3104 104.504 80.1933 104.435 80.0674 104.392L79.9395 104.358C79.642 104.307 79.3756 104.234 79.0791 104.165C78.8003 104.1 78.4905 104.037 78.1846 104.042C77.8635 104.047 77.5362 104.128 77.2324 104.353C76.9376 104.57 76.7044 104.895 76.5107 105.317C76.1299 106.149 75.8406 107.5 75.6074 109.626C75.3726 111.767 75.1898 114.746 75.0469 118.868C74.4753 135.355 74.5371 170.321 74.5371 243.781C74.5371 296.304 74.6063 330.581 74.791 351.846C74.8833 362.477 75.0051 369.861 75.1611 374.646C75.2391 377.038 75.3259 378.789 75.4229 379.974C75.4712 380.564 75.5228 381.025 75.5791 381.358C75.6071 381.524 75.6377 381.671 75.6738 381.791C75.7023 381.885 75.7584 382.052 75.8799 382.177L75.8828 382.18C76.4383 382.74 77.0318 383.147 77.7139 383.331C78.4011 383.516 79.1252 383.461 79.9131 383.19C81.4525 382.662 83.3413 381.272 85.918 378.997C98.3839 367.994 122.103 347.436 143.007 329.437C153.459 320.437 163.206 312.078 170.49 305.874C174.132 302.772 177.157 300.209 179.347 298.374C180.442 297.457 181.327 296.723 181.975 296.194C182.635 295.656 183.02 295.355 183.14 295.278C185.005 294.099 186.715 293.541 188.421 293.554C190.129 293.567 191.89 294.152 193.854 295.36C195.669 296.48 197.112 298.447 197.911 300.626C198.711 302.807 198.839 305.127 198.122 306.941C198.069 307.074 197.861 307.451 197.474 308.094C197.097 308.719 196.574 309.56 195.92 310.592C194.612 312.654 192.787 315.47 190.577 318.839C186.157 325.576 180.2 334.518 173.771 344.04C160.9 363.106 138.221 396.815 123.375 418.947C106.696 443.812 98.3133 456.302 93.0264 463.338C90.3857 466.852 88.5295 468.989 86.8096 470.622C85.0904 472.254 83.4954 473.394 81.3496 474.914C72.0535 481.502 63.2215 484.237 51.4609 484.188C28.8424 484.089 9.86964 469.997 3.00879 448.182L0.804688 441.165V42.5088L3.09668 36.1309C7.99785 22.4384 16.9476 12.2255 29.668 5.81738C35.6341 2.81135 39.4148 1.60847 44.4961 1.09863Z" stroke="#4D00BB"/>
</svg>
