<svg width="143" height="40" viewBox="0 0 143 40" fill="#3285FF" xmlns="http://www.w3.org/2000/svg">
<g filter="url(#filter0_d_158_649)">
<mask id="path-1-inside-1_158_649" fill="white">
<path d="M6.91146 0.0282722C7.68559 -0.0493744 8.91179 0.0406083 9.30937 0.204314C10.12 0.538107 10.2283 0.643179 12.1771 2.9866C14.1661 5.3785 15.4349 6.90185 16.049 7.63452C16.3077 7.94323 17.333 9.17173 18.3281 10.3647C19.3234 11.558 20.3634 12.805 20.6396 13.1356C20.9157 13.466 23.2797 16.2969 25.8917 19.4272C28.4966 22.5492 30.6693 25.105 30.7302 25.1189C30.7797 25.1189 30.8678 25.0724 30.925 25.0147C31.0184 24.9199 31.0281 24.0014 31.0281 15.9304C31.0281 9.87905 31.0065 6.91922 30.9604 6.82202C30.9227 6.75108 30.8345 6.69301 30.7646 6.69285C30.6542 6.69285 29.1154 8.00403 25.2479 11.396C23.8444 12.6269 23.8339 12.6345 23.5354 12.6345C23.3245 12.6345 23.2285 12.5887 23.0417 12.4001C22.8439 12.2005 22.814 12.1303 22.8354 11.9168C22.8555 11.7169 23.563 10.6214 26.3635 6.45848C28.311 3.56358 30.0024 1.11688 30.1719 0.949105C30.5229 0.601699 31.1569 0.240526 31.6479 0.108481C32.1129 -0.0164351 33.0396 -0.00815413 33.4812 0.124106C34.6932 0.48703 35.6357 1.50762 35.8937 2.7366C36.034 3.41269 36.036 28.5971 35.8958 29.2668C35.6176 30.5912 34.5035 31.6826 33.1833 31.9241C32.2433 32.0961 31.0318 31.9679 30.3583 31.6251C29.6656 31.2726 29.7823 31.401 26.0521 26.922C24.3865 24.9221 20.603 20.3874 19.2844 18.8106C18.9159 18.37 17.8262 17.063 16.8625 15.9064C15.8989 14.7498 14.2943 12.8269 13.2969 11.6335C12.2996 10.4403 11.0093 8.89281 10.4292 8.19494C9.84923 7.49725 9.31661 6.91633 9.24687 6.90431C8.91284 6.84639 8.92917 6.37628 8.92917 16.0679C8.92917 22.9964 8.94743 25.1106 9.00833 25.1731C9.1447 25.3107 9.28425 25.2624 9.625 24.9616C11.2698 23.5099 15.8833 19.5373 16.0417 19.4366C16.2953 19.2762 16.5174 19.2782 16.7833 19.4418C17.0379 19.5988 17.1804 19.9874 17.0781 20.246C17.0405 20.3397 16.3169 21.4428 15.4687 22.6991C14.6198 23.9566 13.124 26.1799 12.1448 27.6397C9.94527 30.9189 9.93028 30.9389 9.36458 31.3397C8.74561 31.7784 8.1563 31.9607 7.37396 31.9574C5.86755 31.9509 4.60364 31.0119 4.14687 29.5595L4 29.0918V2.78661L4.15312 2.36056C4.47918 1.44967 5.07514 0.769414 5.92187 0.342856C6.31795 0.143292 6.57126 0.0624064 6.91146 0.0282722Z"/>
<path fill-rule="evenodd" clip-rule="evenodd" d="M75.3302 11.0106C76.7843 11.0106 78.0493 11.3387 79.125 11.996C80.2006 12.6334 81.0368 13.5302 81.6344 14.6856C82.2319 15.821 82.5312 17.1456 82.5312 18.6595V19.9439H71.7448C71.7846 20.9598 72.1631 21.7867 72.8802 22.4241C73.5973 23.0615 74.4736 23.3803 75.5094 23.3804C76.5651 23.3804 77.3426 23.151 77.8406 22.6929C78.3384 22.2348 78.7171 21.7265 78.976 21.1689L82.0531 22.7824C81.7743 23.3003 81.3659 23.8681 80.8281 24.4856C80.3102 25.0831 79.6129 25.6015 78.7364 26.0397C77.86 26.458 76.744 26.6668 75.3896 26.6668C73.9158 26.6667 72.6113 26.3581 71.476 25.7408C70.3606 25.1034 69.4843 24.2167 68.8469 23.0814C68.2294 21.9261 67.9198 20.5716 67.9198 19.0179V18.6595C67.9198 17.1058 68.2294 15.7606 68.8469 14.6251C69.4643 13.4702 70.3306 12.5842 71.4458 11.9668C72.5613 11.3294 73.8562 11.0106 75.3302 11.0106ZM75.3 14.297C74.2843 14.2971 73.4777 14.5563 72.8802 15.0741C72.2827 15.592 71.9144 16.2791 71.775 17.1356H78.7062C78.6266 16.279 78.2779 15.592 77.6604 15.0741C77.0628 14.5562 76.276 14.297 75.3 14.297Z"/>
<path d="M114.215 11.0106C115.868 11.0106 117.243 11.3787 118.339 12.1158C119.434 12.8527 120.151 13.8187 120.49 15.0137L116.994 16.0897C116.834 15.3328 116.505 14.7949 116.007 14.4762C115.529 14.1576 114.932 13.9981 114.215 13.9981C113.498 13.9981 112.95 14.1278 112.572 14.3866C112.193 14.6256 112.004 14.9641 112.004 15.4022C112.004 15.8802 112.203 16.2392 112.601 16.4783C112.999 16.6973 113.537 16.866 114.215 16.9856L115.051 17.1356C116.167 17.3348 117.173 17.6032 118.07 17.9418C118.986 18.2605 119.703 18.7296 120.221 19.347C120.758 19.9446 121.027 20.7614 121.027 21.797C121.027 23.3506 120.459 24.5551 119.324 25.4116C118.208 26.2482 116.705 26.6668 114.812 26.6668C112.88 26.6668 111.296 26.2482 110.061 25.4116C108.827 24.575 108.08 23.3798 107.821 21.8262L111.286 20.9304C111.426 21.6273 111.655 22.1747 111.974 22.5731C112.313 22.9714 112.721 23.2604 113.199 23.4397C113.697 23.5991 114.235 23.6793 114.812 23.6793C115.689 23.6793 116.336 23.5291 116.754 23.2304C117.172 22.9117 117.382 22.5238 117.382 22.0658C117.382 21.6076 117.183 21.259 116.784 21.0199C116.386 20.761 115.748 20.5512 114.872 20.3918L114.035 20.2429C113 20.0437 112.053 19.7752 111.197 19.4366C110.34 19.0781 109.653 18.5895 109.135 17.972C108.618 17.3545 108.358 16.5574 108.358 15.5814C108.358 14.1076 108.896 12.9822 109.972 12.2054C111.047 11.4086 112.462 11.0106 114.215 11.0106Z"/>
<path d="M60.4531 23.5595H60.9906V5.33348H64.875V26.2491H57.375L53.2219 8.02306H52.6844V26.2491H48.8V5.33348H56.3L60.4531 23.5595Z"/>
<path d="M89.6781 23.7095H90.2167L92.1281 11.4293H98.1646L100.076 23.7095H100.615L101.929 11.4293H105.664L103.572 26.2491H97.3271L95.4156 13.9689H94.8771L92.9656 26.2491H86.7208L84.6292 11.4293H88.3635L89.6781 23.7095Z"/>
<path d="M130.307 16.3595H130.845L134.222 11.4293H138.584L133.266 18.7793L138.644 26.2491H134.222L130.845 21.2595H130.307L126.931 26.2491H122.508L127.887 18.7793L122.569 11.4293H126.931L130.307 16.3595Z"/>
</mask>
<path d="M6.91146 0.0282722C7.68559 -0.0493744 8.91179 0.0406083 9.30937 0.204314C10.12 0.538107 10.2283 0.643179 12.1771 2.9866C14.1661 5.3785 15.4349 6.90185 16.049 7.63452C16.3077 7.94323 17.333 9.17173 18.3281 10.3647C19.3234 11.558 20.3634 12.805 20.6396 13.1356C20.9157 13.466 23.2797 16.2969 25.8917 19.4272C28.4966 22.5492 30.6693 25.105 30.7302 25.1189C30.7797 25.1189 30.8678 25.0724 30.925 25.0147C31.0184 24.9199 31.0281 24.0014 31.0281 15.9304C31.0281 9.87905 31.0065 6.91922 30.9604 6.82202C30.9227 6.75108 30.8345 6.69301 30.7646 6.69285C30.6542 6.69285 29.1154 8.00403 25.2479 11.396C23.8444 12.6269 23.8339 12.6345 23.5354 12.6345C23.3245 12.6345 23.2285 12.5887 23.0417 12.4001C22.8439 12.2005 22.814 12.1303 22.8354 11.9168C22.8555 11.7169 23.563 10.6214 26.3635 6.45848C28.311 3.56358 30.0024 1.11688 30.1719 0.949105C30.5229 0.601699 31.1569 0.240526 31.6479 0.108481C32.1129 -0.0164351 33.0396 -0.00815413 33.4812 0.124106C34.6932 0.48703 35.6357 1.50762 35.8937 2.7366C36.034 3.41269 36.036 28.5971 35.8958 29.2668C35.6176 30.5912 34.5035 31.6826 33.1833 31.9241C32.2433 32.0961 31.0318 31.9679 30.3583 31.6251C29.6656 31.2726 29.7823 31.401 26.0521 26.922C24.3865 24.9221 20.603 20.3874 19.2844 18.8106C18.9159 18.37 17.8262 17.063 16.8625 15.9064C15.8989 14.7498 14.2943 12.8269 13.2969 11.6335C12.2996 10.4403 11.0093 8.89281 10.4292 8.19494C9.84923 7.49725 9.31661 6.91633 9.24687 6.90431C8.91284 6.84639 8.92917 6.37628 8.92917 16.0679C8.92917 22.9964 8.94743 25.1106 9.00833 25.1731C9.1447 25.3107 9.28425 25.2624 9.625 24.9616C11.2698 23.5099 15.8833 19.5373 16.0417 19.4366C16.2953 19.2762 16.5174 19.2782 16.7833 19.4418C17.0379 19.5988 17.1804 19.9874 17.0781 20.246C17.0405 20.3397 16.3169 21.4428 15.4687 22.6991C14.6198 23.9566 13.124 26.1799 12.1448 27.6397C9.94527 30.9189 9.93028 30.9389 9.36458 31.3397C8.74561 31.7784 8.1563 31.9607 7.37396 31.9574C5.86755 31.9509 4.60364 31.0119 4.14687 29.5595L4 29.0918V2.78661L4.15312 2.36056C4.47918 1.44967 5.07514 0.769414 5.92187 0.342856C6.31795 0.143292 6.57126 0.0624064 6.91146 0.0282722Z" fill="#6200EE"/>
<path fill-rule="evenodd" clip-rule="evenodd" d="M75.3302 11.0106C76.7843 11.0106 78.0493 11.3387 79.125 11.996C80.2006 12.6334 81.0368 13.5302 81.6344 14.6856C82.2319 15.821 82.5312 17.1456 82.5312 18.6595V19.9439H71.7448C71.7846 20.9598 72.1631 21.7867 72.8802 22.4241C73.5973 23.0615 74.4736 23.3803 75.5094 23.3804C76.5651 23.3804 77.3426 23.151 77.8406 22.6929C78.3384 22.2348 78.7171 21.7265 78.976 21.1689L82.0531 22.7824C81.7743 23.3003 81.3659 23.8681 80.8281 24.4856C80.3102 25.0831 79.6129 25.6015 78.7364 26.0397C77.86 26.458 76.744 26.6668 75.3896 26.6668C73.9158 26.6667 72.6113 26.3581 71.476 25.7408C70.3606 25.1034 69.4843 24.2167 68.8469 23.0814C68.2294 21.9261 67.9198 20.5716 67.9198 19.0179V18.6595C67.9198 17.1058 68.2294 15.7606 68.8469 14.6251C69.4643 13.4702 70.3306 12.5842 71.4458 11.9668C72.5613 11.3294 73.8562 11.0106 75.3302 11.0106ZM75.3 14.297C74.2843 14.2971 73.4777 14.5563 72.8802 15.0741C72.2827 15.592 71.9144 16.2791 71.775 17.1356H78.7062C78.6266 16.279 78.2779 15.592 77.6604 15.0741C77.0628 14.5562 76.276 14.297 75.3 14.297Z" fill="#6200EE"/>
<path d="M114.215 11.0106C115.868 11.0106 117.243 11.3787 118.339 12.1158C119.434 12.8527 120.151 13.8187 120.49 15.0137L116.994 16.0897C116.834 15.3328 116.505 14.7949 116.007 14.4762C115.529 14.1576 114.932 13.9981 114.215 13.9981C113.498 13.9981 112.95 14.1278 112.572 14.3866C112.193 14.6256 112.004 14.9641 112.004 15.4022C112.004 15.8802 112.203 16.2392 112.601 16.4783C112.999 16.6973 113.537 16.866 114.215 16.9856L115.051 17.1356C116.167 17.3348 117.173 17.6032 118.07 17.9418C118.986 18.2605 119.703 18.7296 120.221 19.347C120.758 19.9446 121.027 20.7614 121.027 21.797C121.027 23.3506 120.459 24.5551 119.324 25.4116C118.208 26.2482 116.705 26.6668 114.812 26.6668C112.88 26.6668 111.296 26.2482 110.061 25.4116C108.827 24.575 108.08 23.3798 107.821 21.8262L111.286 20.9304C111.426 21.6273 111.655 22.1747 111.974 22.5731C112.313 22.9714 112.721 23.2604 113.199 23.4397C113.697 23.5991 114.235 23.6793 114.812 23.6793C115.689 23.6793 116.336 23.5291 116.754 23.2304C117.172 22.9117 117.382 22.5238 117.382 22.0658C117.382 21.6076 117.183 21.259 116.784 21.0199C116.386 20.761 115.748 20.5512 114.872 20.3918L114.035 20.2429C113 20.0437 112.053 19.7752 111.197 19.4366C110.34 19.0781 109.653 18.5895 109.135 17.972C108.618 17.3545 108.358 16.5574 108.358 15.5814C108.358 14.1076 108.896 12.9822 109.972 12.2054C111.047 11.4086 112.462 11.0106 114.215 11.0106Z" fill="#6200EE"/>
<path d="M60.4531 23.5595H60.9906V5.33348H64.875V26.2491H57.375L53.2219 8.02306H52.6844V26.2491H48.8V5.33348H56.3L60.4531 23.5595Z" fill="#6200EE"/>
<path d="M89.6781 23.7095H90.2167L92.1281 11.4293H98.1646L100.076 23.7095H100.615L101.929 11.4293H105.664L103.572 26.2491H97.3271L95.4156 13.9689H94.8771L92.9656 26.2491H86.7208L84.6292 11.4293H88.3635L89.6781 23.7095Z" fill="#6200EE"/>
<path d="M130.307 16.3595H130.845L134.222 11.4293H138.584L133.266 18.7793L138.644 26.2491H134.222L130.845 21.2595H130.307L126.931 26.2491H122.508L127.887 18.7793L122.569 11.4293H126.931L130.307 16.3595Z" fill="#6200EE"/>
<path d="M6.91146 0.0282722C7.68559 -0.0493744 8.91179 0.0406083 9.30937 0.204314C10.12 0.538107 10.2283 0.643179 12.1771 2.9866C14.1661 5.3785 15.4349 6.90185 16.049 7.63452C16.3077 7.94323 17.333 9.17173 18.3281 10.3647C19.3234 11.558 20.3634 12.805 20.6396 13.1356C20.9157 13.466 23.2797 16.2969 25.8917 19.4272C28.4966 22.5492 30.6693 25.105 30.7302 25.1189C30.7797 25.1189 30.8678 25.0724 30.925 25.0147C31.0184 24.9199 31.0281 24.0014 31.0281 15.9304C31.0281 9.87905 31.0065 6.91922 30.9604 6.82202C30.9227 6.75108 30.8345 6.69301 30.7646 6.69285C30.6542 6.69285 29.1154 8.00403 25.2479 11.396C23.8444 12.6269 23.8339 12.6345 23.5354 12.6345C23.3245 12.6345 23.2285 12.5887 23.0417 12.4001C22.8439 12.2005 22.814 12.1303 22.8354 11.9168C22.8555 11.7169 23.563 10.6214 26.3635 6.45848C28.311 3.56358 30.0024 1.11688 30.1719 0.949105C30.5229 0.601699 31.1569 0.240526 31.6479 0.108481C32.1129 -0.0164351 33.0396 -0.00815413 33.4812 0.124106C34.6932 0.48703 35.6357 1.50762 35.8937 2.7366C36.034 3.41269 36.036 28.5971 35.8958 29.2668C35.6176 30.5912 34.5035 31.6826 33.1833 31.9241C32.2433 32.0961 31.0318 31.9679 30.3583 31.6251C29.6656 31.2726 29.7823 31.401 26.0521 26.922C24.3865 24.9221 20.603 20.3874 19.2844 18.8106C18.9159 18.37 17.8262 17.063 16.8625 15.9064C15.8989 14.7498 14.2943 12.8269 13.2969 11.6335C12.2996 10.4403 11.0093 8.89281 10.4292 8.19494C9.84923 7.49725 9.31661 6.91633 9.24687 6.90431C8.91284 6.84639 8.92917 6.37628 8.92917 16.0679C8.92917 22.9964 8.94743 25.1106 9.00833 25.1731C9.1447 25.3107 9.28425 25.2624 9.625 24.9616C11.2698 23.5099 15.8833 19.5373 16.0417 19.4366C16.2953 19.2762 16.5174 19.2782 16.7833 19.4418C17.0379 19.5988 17.1804 19.9874 17.0781 20.246C17.0405 20.3397 16.3169 21.4428 15.4687 22.6991C14.6198 23.9566 13.124 26.1799 12.1448 27.6397C9.94527 30.9189 9.93028 30.9389 9.36458 31.3397C8.74561 31.7784 8.1563 31.9607 7.37396 31.9574C5.86755 31.9509 4.60364 31.0119 4.14687 29.5595L4 29.0918V2.78661L4.15312 2.36056C4.47918 1.44967 5.07514 0.769414 5.92187 0.342856C6.31795 0.143292 6.57126 0.0624064 6.91146 0.0282722Z" stroke="black" stroke-width="2" mask="url(#path-1-inside-1_158_649)"/>
<path fill-rule="evenodd" clip-rule="evenodd" d="M75.3302 11.0106C76.7843 11.0106 78.0493 11.3387 79.125 11.996C80.2006 12.6334 81.0368 13.5302 81.6344 14.6856C82.2319 15.821 82.5312 17.1456 82.5312 18.6595V19.9439H71.7448C71.7846 20.9598 72.1631 21.7867 72.8802 22.4241C73.5973 23.0615 74.4736 23.3803 75.5094 23.3804C76.5651 23.3804 77.3426 23.151 77.8406 22.6929C78.3384 22.2348 78.7171 21.7265 78.976 21.1689L82.0531 22.7824C81.7743 23.3003 81.3659 23.8681 80.8281 24.4856C80.3102 25.0831 79.6129 25.6015 78.7364 26.0397C77.86 26.458 76.744 26.6668 75.3896 26.6668C73.9158 26.6667 72.6113 26.3581 71.476 25.7408C70.3606 25.1034 69.4843 24.2167 68.8469 23.0814C68.2294 21.9261 67.9198 20.5716 67.9198 19.0179V18.6595C67.9198 17.1058 68.2294 15.7606 68.8469 14.6251C69.4643 13.4702 70.3306 12.5842 71.4458 11.9668C72.5613 11.3294 73.8562 11.0106 75.3302 11.0106ZM75.3 14.297C74.2843 14.2971 73.4777 14.5563 72.8802 15.0741C72.2827 15.592 71.9144 16.2791 71.775 17.1356H78.7062C78.6266 16.279 78.2779 15.592 77.6604 15.0741C77.0628 14.5562 76.276 14.297 75.3 14.297Z" stroke="black" stroke-width="2" mask="url(#path-1-inside-1_158_649)"/>
<path d="M114.215 11.0106C115.868 11.0106 117.243 11.3787 118.339 12.1158C119.434 12.8527 120.151 13.8187 120.49 15.0137L116.994 16.0897C116.834 15.3328 116.505 14.7949 116.007 14.4762C115.529 14.1576 114.932 13.9981 114.215 13.9981C113.498 13.9981 112.95 14.1278 112.572 14.3866C112.193 14.6256 112.004 14.9641 112.004 15.4022C112.004 15.8802 112.203 16.2392 112.601 16.4783C112.999 16.6973 113.537 16.866 114.215 16.9856L115.051 17.1356C116.167 17.3348 117.173 17.6032 118.07 17.9418C118.986 18.2605 119.703 18.7296 120.221 19.347C120.758 19.9446 121.027 20.7614 121.027 21.797C121.027 23.3506 120.459 24.5551 119.324 25.4116C118.208 26.2482 116.705 26.6668 114.812 26.6668C112.88 26.6668 111.296 26.2482 110.061 25.4116C108.827 24.575 108.08 23.3798 107.821 21.8262L111.286 20.9304C111.426 21.6273 111.655 22.1747 111.974 22.5731C112.313 22.9714 112.721 23.2604 113.199 23.4397C113.697 23.5991 114.235 23.6793 114.812 23.6793C115.689 23.6793 116.336 23.5291 116.754 23.2304C117.172 22.9117 117.382 22.5238 117.382 22.0658C117.382 21.6076 117.183 21.259 116.784 21.0199C116.386 20.761 115.748 20.5512 114.872 20.3918L114.035 20.2429C113 20.0437 112.053 19.7752 111.197 19.4366C110.34 19.0781 109.653 18.5895 109.135 17.972C108.618 17.3545 108.358 16.5574 108.358 15.5814C108.358 14.1076 108.896 12.9822 109.972 12.2054C111.047 11.4086 112.462 11.0106 114.215 11.0106Z" stroke="black" stroke-width="2" mask="url(#path-1-inside-1_158_649)"/>
<path d="M60.4531 23.5595H60.9906V5.33348H64.875V26.2491H57.375L53.2219 8.02306H52.6844V26.2491H48.8V5.33348H56.3L60.4531 23.5595Z" stroke="black" stroke-width="2" mask="url(#path-1-inside-1_158_649)"/>
<path d="M89.6781 23.7095H90.2167L92.1281 11.4293H98.1646L100.076 23.7095H100.615L101.929 11.4293H105.664L103.572 26.2491H97.3271L95.4156 13.9689H94.8771L92.9656 26.2491H86.7208L84.6292 11.4293H88.3635L89.6781 23.7095Z" stroke="black" stroke-width="2" mask="url(#path-1-inside-1_158_649)"/>
<path d="M130.307 16.3595H130.845L134.222 11.4293H138.584L133.266 18.7793L138.644 26.2491H134.222L130.845 21.2595H130.307L126.931 26.2491H122.508L127.887 18.7793L122.569 11.4293H126.931L130.307 16.3595Z" stroke="black" stroke-width="2" mask="url(#path-1-inside-1_158_649)"/>
</g>
<defs>
<filter id="filter0_d_158_649" x="0" y="0" width="142.644" height="40" filterUnits="userSpaceOnUse" color-interpolation-filters="sRGB">
<feFlood flood-opacity="0" result="BackgroundImageFix"/>
<feColorMatrix in="SourceAlpha" type="matrix" values="0 0 0 0 0 0 0 0 0 0 0 0 0 0 0 0 0 0 127 0" result="hardAlpha"/>
<feOffset dy="4"/>
<feGaussianBlur stdDeviation="2"/>
<feComposite in2="hardAlpha" operator="out"/>
<feColorMatrix type="matrix" values="0 0 0 0 0 0 0 0 0 0 0 0 0 0 0 0 0 0 0.25 0"/>
<feBlend mode="normal" in2="BackgroundImageFix" result="effect1_dropShadow_158_649"/>
<feBlend mode="normal" in="SourceGraphic" in2="effect1_dropShadow_158_649" result="shape"/>
</filter>
</defs>
</svg>
