<svg width="16" height="14" viewBox="0 0 16 14" fill="none" xmlns="http://www.w3.org/2000/svg">
<path d="M15.3333 13.9991C15.1565 13.9991 14.9869 13.9288 14.8619 13.8038C14.7368 13.6788 14.6666 13.5092 14.6666 13.3324C14.6655 12.2719 14.2438 11.2551 13.4939 10.5052C12.7439 9.75525 11.7271 9.33349 10.6666 9.33243H6.77993V10.3898C6.77987 10.6534 6.70164 10.9112 6.55513 11.1304C6.40862 11.3496 6.2004 11.5204 5.9568 11.6213C5.7132 11.7222 5.44516 11.7486 5.18655 11.6972C4.92795 11.6458 4.6904 11.5188 4.50393 11.3324L0.584596 7.4131C0.209654 7.03804 -0.000976563 6.52943 -0.000976562 5.9991C-0.000976563 5.46877 0.209654 4.96016 0.584596 4.5851L4.50393 0.665773C4.6904 0.47936 4.92795 0.352419 5.18655 0.300995C5.44516 0.249572 5.7132 0.275976 5.9568 0.376869C6.2004 0.477762 6.40862 0.648615 6.55513 0.867828C6.70164 1.08704 6.77987 1.34477 6.77993 1.60844V2.66577H9.99993C11.5907 2.66753 13.1158 3.30024 14.2406 4.42508C15.3655 5.54991 15.9982 7.07501 15.9999 8.66576V13.3324C15.9999 13.5092 15.9297 13.6788 15.8047 13.8038C15.6796 13.9288 15.5101 13.9991 15.3333 13.9991ZM5.4466 1.60844L1.52726 5.52777C1.40228 5.65278 1.33207 5.82232 1.33207 5.9991C1.33207 6.17587 1.40228 6.34541 1.52726 6.47043L5.4466 10.3898V8.66576C5.4466 8.48895 5.51683 8.31938 5.64186 8.19436C5.76688 8.06933 5.93645 7.9991 6.11326 7.9991H10.6666C11.4237 7.99887 12.1721 8.16014 12.8618 8.47215C13.5516 8.78416 14.1669 9.23972 14.6666 9.80843V8.66576C14.6652 7.42852 14.1731 6.24236 13.2982 5.36749C12.4233 4.49263 11.2372 4.00051 9.99993 3.9991H6.11326C5.93645 3.9991 5.76688 3.92886 5.64186 3.80384C5.51683 3.67882 5.4466 3.50925 5.4466 3.33244V1.60844Z" fill="#4A4A4A"/>
</svg>
